<svg xmlns="http://www.w3.org/2000/svg" viewBox="0 0 1200 900" role="img" aria-label="Domestic and recurring services illustration">
  <defs>
    <linearGradient id="bg" x1="0" y1="0" x2="1" y2="1">
      <stop offset="0" stop-color="#E2E8F0"/>
      <stop offset="0.55" stop-color="#FFFFFF"/>
      <stop offset="1" stop-color="#A7F3D0"/>
    </linearGradient>
    <filter id="soft" x="-20%" y="-20%" width="140%" height="140%">
      <feGaussianBlur stdDeviation="18" result="b"/>
      <feColorMatrix in="b" type="matrix"
        values="1 0 0 0 0
                0 1 0 0 0
                0 0 1 0 0
                0 0 0 .25 0" result="s"/>
      <feMerge>
        <feMergeNode in="s"/>
        <feMergeNode in="SourceGraphic"/>
      </feMerge>
    </filter>
  </defs>

  <rect width="1200" height="900" fill="url(#bg)"/>

  <!-- home card -->
  <g filter="url(#soft)">
    <rect x="220" y="240" width="760" height="520" rx="46" fill="#0F172A" opacity="0.92"/>
    <rect x="260" y="280" width="680" height="440" rx="34" fill="#FFFFFF" opacity="0.95"/>
  </g>

  <!-- house -->
  <g filter="url(#soft)">
    <path d="M420 470l180-150 180 150v240H420V470z" fill="#0F172A" opacity="0.92"/>
    <path d="M400 470l200-170 200 170" fill="none" stroke="#0F172A" stroke-width="26" stroke-linecap="round" opacity="0.92"/>
    <rect x="540" y="570" width="120" height="140" rx="20" fill="#FFFFFF" opacity="0.92"/>
    <circle cx="640" cy="640" r="8" fill="#0F172A" opacity="0.9"/>
    <rect x="470" y="520" width="90" height="70" rx="16" fill="#FFFFFF" opacity="0.92"/>
    <rect x="710" y="520" width="90" height="70" rx="16" fill="#FFFFFF" opacity="0.92"/>
  </g>

  <!-- broom -->
  <g filter="url(#soft)">
    <rect x="310" y="330" width="30" height="420" rx="14" fill="#0F172A" opacity="0.9"/>
    <path d="M250 690h150c15 0 28 13 28 28v22H222v-22c0-15 13-28 28-28z" fill="#0F172A" opacity="0.9"/>
    <path d="M235 740h180l-30 70H265l-30-70z" fill="#0F172A" opacity="0.85"/>
  </g>

  <!-- sparkle -->
  <g opacity="0.6">
    <path d="M950 330l18 42 42 18-42 18-18 42-18-42-42-18 42-18 18-42z" fill="#0F172A"/>
    <circle cx="920" cy="270" r="10" fill="#0F172A"/>
  </g>
</svg>


