<svg xmlns="http://www.w3.org/2000/svg" viewBox="0 0 1200 900" role="img" aria-label="Logistics illustration">
  <defs>
    <linearGradient id="bg" x1="0" y1="0" x2="1" y2="1">
      <stop offset="0" stop-color="#BFDBFE"/>
      <stop offset="0.55" stop-color="#A7F3D0"/>
      <stop offset="1" stop-color="#FDE68A"/>
    </linearGradient>
    <filter id="soft" x="-20%" y="-20%" width="140%" height="140%">
      <feGaussianBlur stdDeviation="18" result="b"/>
      <feColorMatrix in="b" type="matrix"
        values="1 0 0 0 0
                0 1 0 0 0
                0 0 1 0 0
                0 0 0 .25 0" result="s"/>
      <feMerge>
        <feMergeNode in="s"/>
        <feMergeNode in="SourceGraphic"/>
      </feMerge>
    </filter>
  </defs>

  <rect width="1200" height="900" fill="url(#bg)"/>

  <!-- route path -->
  <path d="M170 640c160-220 300-240 420-90s260 200 440-40" fill="none" stroke="#0F172A" stroke-width="20" stroke-linecap="round" stroke-dasharray="14 20" opacity="0.35"/>

  <!-- pins -->
  <g filter="url(#soft)">
    <path d="M240 640c0-66 54-120 120-120s120 54 120 120c0 110-120 230-120 230S240 750 240 640z" fill="#0F172A" opacity="0.92"/>
    <circle cx="360" cy="640" r="44" fill="#FFFFFF" opacity="0.95"/>
  </g>

  <g filter="url(#soft)">
    <path d="M760 520c0-66 54-120 120-120s120 54 120 120c0 110-120 230-120 230S760 630 760 520z" fill="#0F172A" opacity="0.92"/>
    <circle cx="880" cy="520" r="44" fill="#FFFFFF" opacity="0.95"/>
  </g>

  <!-- truck -->
  <g filter="url(#soft)">
    <rect x="410" y="590" width="420" height="160" rx="30" fill="#0F172A" opacity="0.92"/>
    <rect x="830" y="635" width="160" height="115" rx="26" fill="#0F172A" opacity="0.92"/>
    <rect x="860" y="655" width="80" height="50" rx="14" fill="#FFFFFF" opacity="0.9"/>
    <path d="M990 670h70l-30-60h-40z" fill="#0F172A" opacity="0.92"/>
    <circle cx="520" cy="770" r="34" fill="#0F172A" opacity="0.92"/>
    <circle cx="520" cy="770" r="16" fill="#FFFFFF" opacity="0.9"/>
    <circle cx="920" cy="770" r="34" fill="#0F172A" opacity="0.92"/>
    <circle cx="920" cy="770" r="16" fill="#FFFFFF" opacity="0.9"/>
  </g>

  <!-- subtle top label stripe -->
  <rect y="0" width="1200" height="110" fill="#0F172A" opacity="0.08"/>
</svg>


