<svg xmlns="http://www.w3.org/2000/svg" viewBox="0 0 1200 900" role="img" aria-label="Events and catering illustration">
  <defs>
    <linearGradient id="bg" x1="0" y1="0" x2="1" y2="1">
      <stop offset="0" stop-color="#FDBA74" stop-opacity="1"/>
      <stop offset="0.55" stop-color="#A7F3D0" stop-opacity="1"/>
      <stop offset="1" stop-color="#FDE68A" stop-opacity="1"/>
    </linearGradient>
    <linearGradient id="glass" x1="0" y1="0" x2="0" y2="1">
      <stop offset="0" stop-color="#ffffff" stop-opacity="0.85"/>
      <stop offset="1" stop-color="#ffffff" stop-opacity="0.35"/>
    </linearGradient>
    <filter id="soft" x="-20%" y="-20%" width="140%" height="140%">
      <feGaussianBlur stdDeviation="18" result="b"/>
      <feColorMatrix in="b" type="matrix"
        values="1 0 0 0 0
                0 1 0 0 0
                0 0 1 0 0
                0 0 0 .25 0" result="s"/>
      <feMerge>
        <feMergeNode in="s"/>
        <feMergeNode in="SourceGraphic"/>
      </feMerge>
    </filter>
  </defs>

  <rect width="1200" height="900" fill="url(#bg)"/>

  <!-- confetti -->
  <g opacity="0.55">
    <circle cx="180" cy="170" r="10" fill="#0F172A"/>
    <circle cx="240" cy="120" r="7" fill="#0F172A"/>
    <circle cx="1040" cy="170" r="10" fill="#0F172A"/>
    <circle cx="980" cy="120" r="7" fill="#0F172A"/>
    <rect x="140" y="250" width="16" height="16" rx="4" fill="#0F172A"/>
    <rect x="1030" y="250" width="16" height="16" rx="4" fill="#0F172A"/>
  </g>

  <!-- table -->
  <g filter="url(#soft)">
    <rect x="160" y="590" width="880" height="56" rx="28" fill="#0F172A" opacity="0.9"/>
    <rect x="210" y="646" width="40" height="140" rx="18" fill="#0F172A" opacity="0.9"/>
    <rect x="950" y="646" width="40" height="140" rx="18" fill="#0F172A" opacity="0.9"/>
  </g>

  <!-- cloche + plate -->
  <g filter="url(#soft)">
    <ellipse cx="600" cy="595" rx="310" ry="78" fill="#ffffff" opacity="0.92"/>
    <ellipse cx="600" cy="595" rx="240" ry="56" fill="#ffffff" opacity="0.65"/>
    <path d="M370 575c0-150 104-260 230-260s230 110 230 260" fill="url(#glass)" stroke="#ffffff" stroke-opacity="0.65" stroke-width="10" />
    <rect x="560" y="285" width="80" height="36" rx="18" fill="#0F172A" opacity="0.9"/>
    <circle cx="600" cy="303" r="16" fill="#ffffff" opacity="0.9"/>
  </g>

  <!-- serving tray items -->
  <g filter="url(#soft)">
    <circle cx="470" cy="530" r="34" fill="#0F172A" opacity="0.85"/>
    <circle cx="730" cy="530" r="34" fill="#0F172A" opacity="0.85"/>
    <rect x="560" y="500" width="80" height="60" rx="22" fill="#0F172A" opacity="0.85"/>
  </g>

  <!-- subtle footer stripe -->
  <rect y="820" width="1200" height="80" fill="#0F172A" opacity="0.08"/>
</svg>


