<svg xmlns="http://www.w3.org/2000/svg" viewBox="0 0 1200 900" role="img" aria-label="Business sourcing illustration">
  <defs>
    <linearGradient id="bg" x1="0" y1="0" x2="1" y2="1">
      <stop offset="0" stop-color="#A7F3D0"/>
      <stop offset="0.55" stop-color="#FDE68A"/>
      <stop offset="1" stop-color="#E2E8F0"/>
    </linearGradient>
    <filter id="soft" x="-20%" y="-20%" width="140%" height="140%">
      <feGaussianBlur stdDeviation="18" result="b"/>
      <feColorMatrix in="b" type="matrix"
        values="1 0 0 0 0
                0 1 0 0 0
                0 0 1 0 0
                0 0 0 .25 0" result="s"/>
      <feMerge>
        <feMergeNode in="s"/>
        <feMergeNode in="SourceGraphic"/>
      </feMerge>
    </filter>
  </defs>

  <rect width="1200" height="900" fill="url(#bg)"/>

  <!-- clipboard -->
  <g filter="url(#soft)">
    <rect x="340" y="180" width="520" height="660" rx="56" fill="#0F172A" opacity="0.92"/>
    <rect x="380" y="240" width="440" height="560" rx="38" fill="#FFFFFF" opacity="0.96"/>
    <rect x="510" y="150" width="180" height="90" rx="40" fill="#0F172A" opacity="0.92"/>
    <rect x="545" y="176" width="110" height="40" rx="18" fill="#FFFFFF" opacity="0.92"/>
  </g>

  <!-- checklist lines -->
  <g filter="url(#soft)" opacity="0.95">
    <circle cx="430" cy="340" r="14" fill="#0F172A"/>
    <rect x="465" y="328" width="300" height="26" rx="13" fill="#0F172A" opacity="0.78"/>

    <circle cx="430" cy="420" r="14" fill="#0F172A"/>
    <rect x="465" y="408" width="260" height="26" rx="13" fill="#0F172A" opacity="0.6"/>

    <circle cx="430" cy="500" r="14" fill="#0F172A"/>
    <rect x="465" y="488" width="320" height="26" rx="13" fill="#0F172A" opacity="0.7"/>

    <circle cx="430" cy="580" r="14" fill="#0F172A"/>
    <rect x="465" y="568" width="220" height="26" rx="13" fill="#0F172A" opacity="0.55"/>
  </g>

  <!-- box + arrows -->
  <g filter="url(#soft)">
    <rect x="155" y="620" width="220" height="170" rx="28" fill="#0F172A" opacity="0.9"/>
    <path d="M155 670h220" stroke="#FFFFFF" stroke-width="12" opacity="0.35"/>
    <path d="M265 575v-70" stroke="#0F172A" stroke-width="20" stroke-linecap="round" opacity="0.8"/>
    <path d="M265 505l-30 30m30-30l30 30" stroke="#0F172A" stroke-width="16" stroke-linecap="round" opacity="0.8"/>
  </g>

  <g filter="url(#soft)">
    <rect x="825" y="650" width="220" height="140" rx="28" fill="#0F172A" opacity="0.9"/>
    <path d="M935 610v-70" stroke="#0F172A" stroke-width="20" stroke-linecap="round" opacity="0.8"/>
    <path d="M935 540l-30 30m30-30l30 30" stroke="#0F172A" stroke-width="16" stroke-linecap="round" opacity="0.8"/>
  </g>
</svg>


